<?xml version="1.0" encoding="UTF-8"?>
<svg xmlns="http://www.w3.org/2000/svg" xmlns:xlink="http://www.w3.org/1999/xlink" width="15pt" height="15pt" viewBox="0 0 15 15" version="1.1">
<g id="surface1">
<path style=" stroke:none;fill-rule:nonzero;fill:rgb(95.686275%,26.27451%,21.176471%);fill-opacity:1;" d="M 7.5 0 C 3.363281 0 0 3.363281 0 7.5 C 0 11.636719 3.363281 15 7.5 15 C 11.636719 15 15 11.636719 15 7.5 C 15 3.363281 11.636719 0 7.5 0 Z M 7.5 0 "/>
<path style=" stroke:none;fill-rule:nonzero;fill:rgb(98.039216%,98.039216%,98.039216%);fill-opacity:1;" d="M 10.261719 9.378906 C 10.507812 9.621094 10.507812 10.015625 10.261719 10.261719 C 10.140625 10.382812 9.980469 10.445312 9.820312 10.445312 C 9.660156 10.445312 9.5 10.382812 9.378906 10.261719 L 7.5 8.382812 L 5.621094 10.261719 C 5.5 10.382812 5.339844 10.445312 5.179688 10.445312 C 5.019531 10.445312 4.859375 10.382812 4.738281 10.261719 C 4.492188 10.015625 4.492188 9.621094 4.738281 9.378906 L 6.617188 7.5 L 4.738281 5.621094 C 4.492188 5.378906 4.492188 4.984375 4.738281 4.738281 C 4.984375 4.492188 5.378906 4.492188 5.621094 4.738281 L 7.5 6.617188 L 9.378906 4.738281 C 9.621094 4.492188 10.015625 4.492188 10.261719 4.738281 C 10.507812 4.984375 10.507812 5.378906 10.261719 5.621094 L 8.382812 7.5 Z M 10.261719 9.378906 "/>
</g>
</svg>
